<?xml version="1.0" encoding="utf-8"?>
<!-- Generator: Adobe Illustrator 25.2.0, SVG Export Plug-In . SVG Version: 6.00 Build 0)  -->
<svg version="1.1" id="Capa_1" xmlns="http://www.w3.org/2000/svg" xmlns:xlink="http://www.w3.org/1999/xlink" x="0px" y="0px"
	 viewBox="0 0 841.89 595.28" style="enable-background:new 0 0 841.89 595.28;" xml:space="preserve">
<style type="text/css">
	.st0{fill:#010101;}
</style>
<g>
	<g>
		<g>
			<g>
				<path class="st0" d="M246.57,229.71c0-17.54,6.11-31.22,18.34-41.02c12.22-9.8,29.16-14.7,50.82-14.7h34.73v15.8
					c0,6.89-5.59,12.48-12.48,12.48h-22.25c-12.32,0-22.17,2.43-29.54,7.28c-7.38,4.86-11.06,11.58-11.06,20.16v91.07
					c0,6.02-3.25,9.22-10.89,10.89c0,0-4.32,1.34-17.67,2.23C246.57,330.14,246.57,229.71,246.57,229.71z"/>
			</g>
		</g>
		<g>
			<g>
				<path class="st0" d="M535.58,157.62c0-6.89,5.59-12.48,12.48-12.48h56.27c21.51,0,37.97,4.25,49.38,12.74
					c11.41,8.49,17.11,21.52,17.11,39.06v83.96c0,16.99-5.8,30.01-17.4,39.06c-11.6,9.06-27.96,13.58-49.1,13.58h-68.74V157.62z
					 M604.18,173.43h-40.04v119.36c0,6.89,5.59,12.48,12.48,12.48h27.56c4.29,0,8.72-0.33,13.3-0.98c4.57-0.66,8.68-1.82,12.32-3.51
					c3.64-1.68,6.62-4.12,8.96-7.31c2.33-3.18,3.5-7.3,3.5-12.37v-84.33C642.26,181.21,629.56,173.43,604.18,173.43z"/>
			</g>
		</g>
		<g>
			<path class="st0" d="M490.71,305.26h-47.86h-47.86c-6.89,0-12.48,5.59-12.48,12.48v15.8h60.34h60.34v-15.8
				C503.19,310.85,497.6,305.26,490.71,305.26z"/>
		</g>
		<g>
			<path class="st0" d="M493.56,178.82l-50.71-11.88l-50.71,11.88c-5.64,1.32-9.63,6.35-9.63,12.15v18.39l60.34-14.14l60.34,14.14
				v-18.39C503.19,185.18,499.2,180.15,493.56,178.82z"/>
		</g>
		<g>
			<path class="st0" d="M493.56,244.45l-50.71-11.88l-50.71,11.88c-5.64,1.32-9.63,6.35-9.63,12.15v18.39l60.34-14.14l60.34,14.14
				V256.6C503.19,250.81,499.2,245.77,493.56,244.45z"/>
		</g>
		<g>
			<path class="st0" d="M215.07,313.59c0-4.23-3.37-7.67-7.59-7.82c-0.01,0-0.03,0-0.04,0c-10.6-0.43-19.22-2.74-25.83-6.93
				c-7.38-4.66-11.06-11.2-11.06-19.6v-64.8c0-6.89,5.59-12.48,12.48-12.48h19.57c6.89,0,12.48-5.59,12.48-12.48v-15.49h-44.52
				v-28.87h-16.08c-6.89,0-12.48,5.59-12.48,12.48v121.64c0,8.78,1.63,16.57,4.9,23.38c3.26,6.82,7.93,12.56,14,17.22
				c6.06,4.67,13.29,7.69,21.84,9.93c12.01,3.16,23.12,4.35,32.34,4.35L215.07,313.59z"/>
		</g>
		<g>
			<g>
				<path class="st0" d="M402.71,396.62h-15.66v8.47h11.17v4.32h-11.17V419h15.66v4.32h-20.03v-31.03h20.03V396.62z"/>
				<path class="st0" d="M430.83,414.63c0-1.63-0.51-2.82-1.54-3.6c-1.03-0.77-2.65-1.27-4.88-1.5c-1.51-0.14-2.9-0.42-4.15-0.84
					c-1.26-0.41-2.33-0.98-3.23-1.71s-1.6-1.61-2.1-2.65c-0.5-1.04-0.75-2.26-0.75-3.66c0-2.97,0.94-5.16,2.83-6.59
					c1.88-1.43,4.41-2.14,7.57-2.14c1,0,2.01,0.1,3.04,0.3c1.03,0.2,2,0.55,2.91,1.06c0.91,0.51,1.75,1.19,2.5,2.04
					c0.76,0.85,1.38,1.93,1.86,3.24l-3.94,1.8c-0.54-1.45-1.37-2.5-2.47-3.14c-1.11-0.64-2.4-0.96-3.88-0.96
					c-1.9,0-3.39,0.34-4.46,1.01c-1.07,0.67-1.6,1.8-1.6,3.38c0,0.74,0.16,1.39,0.49,1.93c0.33,0.55,0.77,1,1.35,1.35
					c0.57,0.36,1.22,0.64,1.96,0.84c0.74,0.2,1.54,0.35,2.39,0.43c2.08,0.2,3.79,0.59,5.14,1.16c1.35,0.57,2.43,1.28,3.22,2.12
					c0.8,0.84,1.34,1.79,1.64,2.85c0.3,1.06,0.45,2.15,0.45,3.29c0,1.48-0.25,2.79-0.75,3.92c-0.5,1.13-1.21,2.07-2.14,2.82
					c-0.93,0.76-2.05,1.33-3.36,1.71c-1.31,0.38-2.77,0.58-4.37,0.58c-1.03,0-2.06-0.1-3.1-0.3c-1.04-0.2-2.03-0.55-2.97-1.05
					c-0.94-0.5-1.82-1.16-2.63-1.97c-0.81-0.81-1.49-1.83-2.03-3.06l3.77-2.05c0.63,1.4,1.54,2.43,2.74,3.1
					c1.2,0.67,2.61,1.01,4.23,1.01c1.88,0,3.4-0.36,4.54-1.09C430.26,417.52,430.83,416.32,430.83,414.63z"/>
				<path class="st0" d="M466.3,392.29v4.32h-9.16v26.7h-4.36v-26.7h-9.03v-4.32H466.3z"/>
				<path class="st0" d="M493.18,392.29h4.28v22.85c0,2.77-0.91,4.89-2.74,6.36c-1.83,1.47-4.34,2.2-7.53,2.2
					c-1.54,0-2.96-0.19-4.26-0.56c-1.3-0.37-2.42-0.92-3.38-1.65c-0.96-0.73-1.7-1.63-2.23-2.7c-0.53-1.07-0.79-2.29-0.79-3.66
					v-22.85h4.36v22.85c0,0.8,0.19,1.47,0.58,2.01c0.38,0.54,0.88,0.98,1.5,1.3c0.61,0.33,1.29,0.56,2.03,0.71
					c0.74,0.14,1.47,0.21,2.18,0.21c0.68,0,1.38-0.07,2.1-0.21s1.35-0.38,1.93-0.71c0.57-0.33,1.04-0.76,1.41-1.3
					c0.37-0.54,0.56-1.21,0.56-2.01V392.29z"/>
				<path class="st0" d="M511.15,392.29h10.51c3.29,0,5.8,0.65,7.55,1.95c1.74,1.3,2.62,3.29,2.62,5.97v15.06
					c0,2.6-0.89,4.59-2.66,5.97c-1.77,1.38-4.27,2.08-7.51,2.08h-10.51V392.29z M521.64,396.62h-6.12V419h6.12
					c0.65,0,1.33-0.05,2.03-0.15c0.7-0.1,1.33-0.28,1.88-0.54c0.56-0.26,1.01-0.63,1.37-1.12c0.36-0.49,0.53-1.12,0.53-1.89v-15.12
					C527.46,397.81,525.52,396.62,521.64,396.62z"/>
				<path class="st0" d="M545.48,392.29h4.36v30.98h-4.36V392.29z"/>
				<path class="st0" d="M563.53,415.19v-14.81c0-1.4,0.26-2.63,0.79-3.68c0.53-1.06,1.26-1.94,2.19-2.65
					c0.93-0.71,2.04-1.24,3.35-1.58c1.3-0.34,2.72-0.51,4.27-0.51c1.54,0,2.96,0.17,4.27,0.51c1.3,0.34,2.42,0.87,3.37,1.58
					c0.94,0.71,1.68,1.6,2.21,2.65c0.53,1.05,0.79,2.28,0.79,3.68v14.81c0,1.4-0.26,2.63-0.79,3.7c-0.53,1.07-1.26,1.96-2.21,2.68
					c-0.94,0.71-2.07,1.25-3.37,1.6c-1.3,0.36-2.72,0.53-4.27,0.53c-1.54,0-2.97-0.18-4.27-0.53c-1.3-0.36-2.42-0.89-3.35-1.6
					s-1.66-1.6-2.19-2.68C563.8,417.82,563.53,416.59,563.53,415.19z M567.9,415.18c0,0.71,0.16,1.34,0.47,1.87
					c0.31,0.53,0.75,0.96,1.31,1.31c0.56,0.34,1.21,0.6,1.97,0.77c0.75,0.17,1.58,0.26,2.46,0.26c0.88,0,1.71-0.09,2.48-0.26
					c0.77-0.17,1.43-0.43,1.99-0.77c0.56-0.34,1-0.78,1.33-1.31c0.33-0.53,0.49-1.15,0.49-1.87v-14.83c0-0.68-0.17-1.29-0.49-1.8
					c-0.33-0.52-0.77-0.94-1.33-1.29c-0.56-0.34-1.22-0.59-1.99-0.75c-0.77-0.16-1.6-0.23-2.48-0.23c-0.88,0-1.71,0.08-2.46,0.23
					c-0.76,0.16-1.41,0.41-1.97,0.75c-0.56,0.34-0.99,0.77-1.31,1.29c-0.32,0.51-0.47,1.11-0.47,1.8V415.18z"/>
				<path class="st0" d="M617.24,392.29h10.51c3.29,0,5.8,0.65,7.55,1.95c1.74,1.3,2.62,3.29,2.62,5.97v15.06
					c0,2.6-0.89,4.59-2.66,5.97c-1.77,1.38-4.27,2.08-7.51,2.08h-10.51V392.29z M627.73,396.62h-6.12V419h6.12
					c0.65,0,1.33-0.05,2.03-0.15c0.7-0.1,1.33-0.28,1.88-0.54c0.56-0.26,1.01-0.63,1.37-1.12c0.36-0.49,0.53-1.12,0.53-1.89v-15.12
					C633.55,397.81,631.61,396.62,627.73,396.62z"/>
				<path class="st0" d="M671.59,396.62h-15.66v8.47h11.17v4.32h-11.17V419h15.66v4.32h-20.03v-31.03h20.03V396.62z"/>
				<path class="st0" d="M385.12,470.42h-4.58l10.7-31.03h3.38l10.7,31.03h-4.62l-3.17-9.16h-9.24L385.12,470.42z M396.03,456.94
					l-3.08-9.29l-3.17,9.29H396.03z"/>
				<path class="st0" d="M439.9,470.42h-4.96l-7.96-13.22h-5.74v13.22h-4.36V439.4h10.49c3.11,0,5.49,0.68,7.15,2.05
					c1.65,1.37,2.48,3.65,2.48,6.85c0,4.48-1.76,7.28-5.27,8.39L439.9,470.42z M427.36,452.88c1.68,0,2.98-0.34,3.89-1.02
					c0.91-0.68,1.37-1.87,1.37-3.56c0-1.72-0.44-2.92-1.33-3.58c-0.88-0.66-2.2-1-3.94-1h-6.12v9.16H427.36z"/>
				<path class="st0" d="M450.6,462.25v-14.77c0-1.4,0.26-2.63,0.79-3.68c0.53-1.06,1.26-1.94,2.18-2.65
					c0.92-0.71,2.04-1.24,3.34-1.58c1.3-0.34,2.72-0.51,4.26-0.51c1.54,0,2.96,0.17,4.26,0.51c1.3,0.34,2.42,0.87,3.36,1.58
					c0.94,0.71,1.68,1.6,2.2,2.65c0.53,1.05,0.79,2.28,0.79,3.68v14.98c0,1.6-0.33,2.93-0.98,3.98c0.4,0.4,0.82,0.82,1.26,1.26
					c0.44,0.44,0.78,0.79,1.01,1.05l-3.04,2.99l-2.31-2.35c-0.88,0.46-1.88,0.8-2.99,1.03c-1.11,0.23-2.3,0.34-3.55,0.34
					c-1.54,0-2.96-0.18-4.26-0.53c-1.3-0.36-2.41-0.89-3.34-1.6c-0.93-0.71-1.65-1.6-2.18-2.67
					C450.86,464.88,450.6,463.65,450.6,462.25z M462.62,464.31l3-3.04l1.8,1.75v-15.57c0-0.69-0.16-1.29-0.47-1.8
					c-0.32-0.51-0.75-0.94-1.31-1.29c-0.56-0.34-1.22-0.59-1.99-0.75c-0.77-0.16-1.6-0.23-2.48-0.23c-0.89,0-1.71,0.08-2.46,0.23
					c-0.76,0.16-1.41,0.41-1.97,0.75c-0.56,0.34-0.99,0.77-1.3,1.29c-0.32,0.51-0.47,1.11-0.47,1.8v14.79
					c0,0.71,0.16,1.34,0.47,1.87c0.31,0.53,0.75,0.96,1.3,1.31c0.56,0.34,1.21,0.6,1.97,0.77c0.76,0.17,1.58,0.26,2.46,0.26
					c0.68,0,1.27-0.02,1.75-0.06c0.48-0.04,0.99-0.14,1.5-0.28L462.62,464.31z"/>
				<path class="st0" d="M502.55,439.4h4.28v22.85c0,2.77-0.91,4.89-2.74,6.36c-1.83,1.47-4.34,2.2-7.53,2.2
					c-1.54,0-2.96-0.19-4.26-0.56c-1.3-0.37-2.42-0.92-3.38-1.65c-0.96-0.73-1.7-1.63-2.23-2.7c-0.53-1.07-0.79-2.29-0.79-3.66
					V439.4h4.36v22.85c0,0.8,0.19,1.47,0.58,2.01c0.38,0.54,0.88,0.98,1.5,1.3c0.61,0.33,1.29,0.56,2.03,0.71
					c0.74,0.14,1.47,0.21,2.18,0.21c0.68,0,1.38-0.07,2.1-0.21c0.71-0.14,1.35-0.38,1.93-0.71c0.57-0.33,1.04-0.76,1.41-1.3
					c0.37-0.54,0.56-1.21,0.56-2.01V439.4z"/>
				<path class="st0" d="M520.53,439.4h4.36v30.98h-4.36V439.4z"/>
				<path class="st0" d="M557.72,439.4v4.32h-9.16v26.7h-4.37v-26.7h-9.03v-4.32H557.72z"/>
				<path class="st0" d="M587.97,443.72h-15.66v8.47h11.17v4.32h-11.17v9.58h15.66v4.32h-20.03V439.4h20.03V443.72z"/>
				<path class="st0" d="M599.96,447.49c0-1.48,0.28-2.75,0.83-3.81c0.56-1.05,1.31-1.93,2.27-2.61c0.96-0.68,2.07-1.19,3.34-1.52
					c1.27-0.33,2.62-0.49,4.05-0.49c1.05,0,2.09,0.1,3.1,0.3c1.01,0.2,1.97,0.53,2.87,1c0.9,0.47,1.73,1.08,2.48,1.84
					c0.76,0.76,1.41,1.72,1.95,2.86l-3.98,1.97c-0.57-1.37-1.44-2.32-2.61-2.84c-1.17-0.53-2.44-0.79-3.81-0.79
					c-1.83,0-3.3,0.34-4.43,1.01c-1.13,0.67-1.69,1.69-1.69,3.06v14.92c0,0.8,0.19,1.46,0.56,1.97c0.37,0.52,0.85,0.93,1.43,1.24
					c0.58,0.32,1.24,0.54,1.97,0.66c0.73,0.13,1.45,0.19,2.16,0.19c1.37,0,2.62-0.26,3.74-0.79c1.13-0.53,2.06-1.43,2.8-2.72
					l3.85,1.75c-1.23,2.28-2.73,3.87-4.51,4.75c-1.78,0.89-3.75,1.33-5.88,1.33c-1.54,0-2.95-0.18-4.24-0.53
					c-1.29-0.36-2.39-0.88-3.32-1.58c-0.93-0.7-1.65-1.57-2.16-2.61c-0.51-1.04-0.77-2.26-0.77-3.66V447.49z"/>
				<path class="st0" d="M652.8,439.4v4.32h-9.16v26.7h-4.37v-26.7h-9.03v-4.32H652.8z"/>
				<path class="st0" d="M679.68,439.4h4.28v22.85c0,2.77-0.91,4.89-2.74,6.36c-1.83,1.47-4.34,2.2-7.53,2.2
					c-1.54,0-2.96-0.19-4.26-0.56c-1.3-0.37-2.42-0.92-3.38-1.65c-0.96-0.73-1.7-1.63-2.23-2.7c-0.53-1.07-0.79-2.29-0.79-3.66
					V439.4h4.36v22.85c0,0.8,0.19,1.47,0.58,2.01c0.38,0.54,0.88,0.98,1.5,1.3c0.61,0.33,1.29,0.56,2.03,0.71
					c0.74,0.14,1.47,0.21,2.18,0.21c0.68,0,1.38-0.07,2.1-0.21c0.71-0.14,1.35-0.38,1.93-0.71c0.57-0.33,1.04-0.76,1.41-1.3
					c0.37-0.54,0.56-1.21,0.56-2.01V439.4z"/>
				<path class="st0" d="M720.68,470.42h-4.96l-7.96-13.22h-5.73v13.22h-4.36V439.4h10.49c3.11,0,5.49,0.68,7.15,2.05
					c1.65,1.37,2.48,3.65,2.48,6.85c0,4.48-1.75,7.28-5.26,8.39L720.68,470.42z M708.14,452.88c1.68,0,2.98-0.34,3.89-1.02
					c0.91-0.68,1.37-1.87,1.37-3.56c0-1.72-0.44-2.92-1.33-3.58c-0.89-0.66-2.2-1-3.94-1h-6.12v9.16H708.14z"/>
				<path class="st0" d="M734.25,470.42h-4.58l10.7-31.03h3.38l10.7,31.03h-4.62l-3.17-9.16h-9.25L734.25,470.42z M745.16,456.94
					l-3.08-9.29l-3.17,9.29H745.16z"/>
			</g>
		</g>
	</g>
</g>
</svg>
